<svg xmlns="http://www.w3.org/2000/svg" xmlns:xlink="http://www.w3.org/1999/xlink" xml:space="preserve" width="1224" height="491"><rect x="0" y="0" width="1224" height="491" style="fill: #ffffff; fill-opacity: 1;"></rect><g class="subplot xy"><rect x="78" y="78" width="1068" height="335" style="stroke-width: 0px; fill: #ffffff; fill-opacity: 1;"></rect><g><path class="xgrid crisp" d="M80,80v331" transform="translate(40.66,0)" style="stroke: #dddddd; stroke-opacity: 1; stroke-width: 1px;"></path><path class="xgrid crisp" d="M80,80v331" transform="translate(75.04,0)" style="stroke: #dddddd; stroke-opacity: 1; stroke-width: 1px;"></path><path class="xgrid crisp" d="M80,80v331" transform="translate(104.82,0)" style="stroke: #dddddd; stroke-opacity: 1; stroke-width: 1px;"></path><path class="xgrid crisp" d="M80,80v331" transform="translate(131.09,0)" style="stroke: #dddddd; stroke-opacity: 1; stroke-width: 1px;"></path><path class="xgrid crisp" d="M80,80v331" transform="translate(154.59,0)" style="stroke: #dddddd; stroke-opacity: 1; stroke-width: 1px;"></path><path class="xgrid crisp" d="M80,80v331" transform="translate(309.18,0)" style="stroke: #dddddd; stroke-opacity: 1; stroke-width: 1px;"></path><path class="xgrid crisp" d="M80,80v331" transform="translate(399.61,0)" style="stroke: #dddddd; stroke-opacity: 1; stroke-width: 1px;"></path><path class="xgrid crisp" d="M80,80v331" transform="translate(463.78,0)" style="stroke: #dddddd; stroke-opacity: 1; stroke-width: 1px;"></path><path class="xgrid crisp" d="M80,80v331" transform="translate(513.54,0)" style="stroke: #dddddd; stroke-opacity: 1; stroke-width: 1px;"></path><path class="xgrid crisp" d="M80,80v331" transform="translate(554.21,0)" style="stroke: #dddddd; stroke-opacity: 1; stroke-width: 1px;"></path><path class="xgrid crisp" d="M80,80v331" transform="translate(588.59,0)" style="stroke: #dddddd; stroke-opacity: 1; stroke-width: 1px;"></path><path class="xgrid crisp" d="M80,80v331" transform="translate(618.37,0)" style="stroke: #dddddd; stroke-opacity: 1; stroke-width: 1px;"></path><path class="xgrid crisp" d="M80,80v331" transform="translate(644.64,0)" style="stroke: #dddddd; stroke-opacity: 1; stroke-width: 1px;"></path><path class="xgrid crisp" d="M80,80v331" transform="translate(668.13,0)" style="stroke: #dddddd; stroke-opacity: 1; stroke-width: 1px;"></path><path class="xgrid crisp" d="M80,80v331" transform="translate(822.73,0)" style="stroke: #dddddd; stroke-opacity: 1; stroke-width: 1px;"></path><path class="xgrid crisp" d="M80,80v331" transform="translate(913.16,0)" style="stroke: #dddddd; stroke-opacity: 1; stroke-width: 1px;"></path><path class="xgrid crisp" d="M80,80v331" transform="translate(977.32,0)" style="stroke: #dddddd; stroke-opacity: 1; stroke-width: 1px;"></path><path class="xgrid crisp" d="M80,80v331" transform="translate(1027.09,0)" style="stroke: #dddddd; stroke-opacity: 1; stroke-width: 1px;"></path><path class="ygrid crisp" d="M80,80h1064" transform="translate(0,324.03)" style="stroke: #dddddd; stroke-opacity: 1; stroke-width: 1px;"></path><path class="ygrid crisp" d="M80,80h1064" transform="translate(0,284.6)" style="stroke: #dddddd; stroke-opacity: 1; stroke-width: 1px;"></path><path class="ygrid crisp" d="M80,80h1064" transform="translate(0,245.17)" style="stroke: #dddddd; stroke-opacity: 1; stroke-width: 1px;"></path><path class="ygrid crisp" d="M80,80h1064" transform="translate(0,205.75)" style="stroke: #dddddd; stroke-opacity: 1; stroke-width: 1px;"></path><path class="ygrid crisp" d="M80,80h1064" transform="translate(0,166.32)" style="stroke: #dddddd; stroke-opacity: 1; stroke-width: 1px;"></path><path class="ygrid crisp" d="M80,80h1064" transform="translate(0,126.89)" style="stroke: #dddddd; stroke-opacity: 1; stroke-width: 1px;"></path><path class="ygrid crisp" d="M80,80h1064" transform="translate(0,87.46)" style="stroke: #dddddd; stroke-opacity: 1; stroke-width: 1px;"></path><path class="ygrid crisp" d="M80,80h1064" transform="translate(0,48.03)" style="stroke: #dddddd; stroke-opacity: 1; stroke-width: 1px;"></path><path class="ygrid crisp" d="M80,80h1064" transform="translate(0,8.6)" style="stroke: #dddddd; stroke-opacity: 1; stroke-width: 1px;"></path></g><g></g><g></g><g></g><svg preserveAspectRatio="none" x="80" y="80" width="1064" height="331" style="fill: none;" viewBox="0 0 1064 331"><g class="errorbars" style="stroke: #000000;"></g><g class="trace scatter" style="stroke-miterlimit: 2; opacity: 1;"><path class="js-line" d="M0,314.45L154.59,280.44L245.02,239.04L309.18,213.66L358.95,194.75L399.61,167.83L433.99,165.67L463.78,159.82L490.04,137.67L513.54,137.79L534.8,127.26L554.21,127.91L572.06,108.59L588.59,106.99L603.97,115.98L618.37,106.19L631.89,98.43L644.64,102.65L656.69,101.32L668.13,91.77L679.02,86.54L689.39,88.57L699.31,86.6L708.8,86.38L717.9,81.49L726.65,88.26L735.07,79.14L743.18,76.43L751,75.51L758.56,76.34L765.88,71.35L772.96,71.47L779.82,80.84L786.48,77.67L792.94,69.01L799.23,70.4L805.34,71.97L811.29,67.62L817.08,72.49L822.73,73.78L828.23,68.33L833.61,60.57L838.86,71.01L843.98,66.58L849,61.99L853.9,63.56L858.69,58.75L863.39,64.51L867.99,60.97L872.49,63.22L876.91,63.68L881.24,66.64L885.49,60.45L889.66,62.2L893.75,61.89L897.77,63.22L901.72,57.89L905.6,66.76L909.41,64.6L913.16,59.46L916.84,60.23L920.47,58.11L924.04,58.11L927.55,56.23L931.01,60.35L934.41,59L937.77,55.61L941.07,58.47L944.33,57.46L947.54,57.27L950.7,58.63L953.82,54.56L956.9,54.04L959.93,61.52L962.92,57.83L965.88,55.67L968.79,56.13L971.67,53.95L974.51,54.72L977.32,57.95L980.09,58.84L982.83,50.31L985.53,59.31L988.2,59.68L990.84,57.18L993.45,52.35L996.03,52.16L998.57,55.09L1001.1,60.11L1003.59,54.69L1006.05,52.9L1008.49,50.44L1010.9,54.99L1013.29,51.79L1015.65,53.39L1017.98,53.92L1020.29,47.85L1022.58,51.94L1024.84,52.75L1027.09,51.61L1029.3,53.58L1031.5,54.78L1033.68,53.18L1035.83,53.89L1037.97,52.22L1040.08,52.16L1042.18,50.13L1044.25,51.21L1046.31,58.17L1048.34,52.62L1050.36,51.11L1052.36,52.25L1054.34,55.89L1056.31,51.88L1058.26,54.96L1060.19,56.01L1062.1,48.65L1064,59.98" style="stroke-width: 2px; stroke: #1f77b4; stroke-opacity: 1; fill: none;"></path></g></svg><g></g><path class="crisp" d="M77,413.5h1070M77,77.5h1070" style="fill: none; stroke-width: 1px; stroke: #000000; stroke-opacity: 1;"></path><path class="crisp" d="M77.5,78v335M1146.5,78v335" stroke-width="1px" style="fill: none; stroke: #000000; stroke-opacity: 1;"></path><g></g><g><path class="xtick ticks crisp" d="M80,414v5" transform="translate(0,0)" style="stroke: #000000; stroke-opacity: 1; stroke-width: 1px;"></path><path class="xtick ticks crisp" d="M80,414v5" transform="translate(40.66,0)" style="stroke: #000000; stroke-opacity: 1; stroke-width: 1px;"></path><path class="xtick ticks crisp" d="M80,414v5" transform="translate(75.04,0)" style="stroke: #000000; stroke-opacity: 1; stroke-width: 1px;"></path><path class="xtick ticks crisp" d="M80,414v5" transform="translate(104.82,0)" style="stroke: #000000; stroke-opacity: 1; stroke-width: 1px;"></path><path class="xtick ticks crisp" d="M80,414v5" transform="translate(131.09,0)" style="stroke: #000000; stroke-opacity: 1; stroke-width: 1px;"></path><path class="xtick ticks crisp" d="M80,414v5" transform="translate(154.59,0)" style="stroke: #000000; stroke-opacity: 1; stroke-width: 1px;"></path><path class="xtick ticks crisp" d="M80,414v5" transform="translate(309.18,0)" style="stroke: #000000; stroke-opacity: 1; stroke-width: 1px;"></path><path class="xtick ticks crisp" d="M80,414v5" transform="translate(399.61,0)" style="stroke: #000000; stroke-opacity: 1; stroke-width: 1px;"></path><path class="xtick ticks crisp" d="M80,414v5" transform="translate(463.78,0)" style="stroke: #000000; stroke-opacity: 1; stroke-width: 1px;"></path><path class="xtick ticks crisp" d="M80,414v5" transform="translate(513.54,0)" style="stroke: #000000; stroke-opacity: 1; stroke-width: 1px;"></path><path class="xtick ticks crisp" d="M80,414v5" transform="translate(554.21,0)" style="stroke: #000000; stroke-opacity: 1; stroke-width: 1px;"></path><path class="xtick ticks crisp" d="M80,414v5" transform="translate(588.59,0)" style="stroke: #000000; stroke-opacity: 1; stroke-width: 1px;"></path><path class="xtick ticks crisp" d="M80,414v5" transform="translate(618.37,0)" style="stroke: #000000; stroke-opacity: 1; stroke-width: 1px;"></path><path class="xtick ticks crisp" d="M80,414v5" transform="translate(644.64,0)" style="stroke: #000000; stroke-opacity: 1; stroke-width: 1px;"></path><path class="xtick ticks crisp" d="M80,414v5" transform="translate(668.13,0)" style="stroke: #000000; stroke-opacity: 1; stroke-width: 1px;"></path><path class="xtick ticks crisp" d="M80,414v5" transform="translate(822.73,0)" style="stroke: #000000; stroke-opacity: 1; stroke-width: 1px;"></path><path class="xtick ticks crisp" d="M80,414v5" transform="translate(913.16,0)" style="stroke: #000000; stroke-opacity: 1; stroke-width: 1px;"></path><path class="xtick ticks crisp" d="M80,414v5" transform="translate(977.32,0)" style="stroke: #000000; stroke-opacity: 1; stroke-width: 1px;"></path><path class="xtick ticks crisp" d="M80,414v5" transform="translate(1027.09,0)" style="stroke: #000000; stroke-opacity: 1; stroke-width: 1px;"></path><text class="xtick" x="80" y="432" transform="translate(0,0)" text-anchor="middle" style="font-family: 'Open sans', verdana, arial, sans-serif; font-size: 12px; fill: #000000; fill-opacity: 1;"><tspan class="nl">5</tspan></text><text class="xtick" x="80" y="432" transform="translate(40.66,0)" text-anchor="middle" style="font-family: 'Open sans', verdana, arial, sans-serif; font-size: 12px; fill: #000000; fill-opacity: 1;"><tspan class="nl">6</tspan></text><text class="xtick" x="80" y="432" transform="translate(75.04,0)" text-anchor="middle" style="font-family: 'Open sans', verdana, arial, sans-serif; font-size: 12px; fill: #000000; fill-opacity: 1;"><tspan class="nl">7</tspan></text><text class="xtick" x="80" y="432" transform="translate(104.82,0)" text-anchor="middle" style="font-family: 'Open sans', verdana, arial, sans-serif; font-size: 12px; fill: #000000; fill-opacity: 1;"><tspan class="nl">8</tspan></text><text class="xtick" x="80" y="432" transform="translate(131.09,0)" text-anchor="middle" style="font-family: 'Open sans', verdana, arial, sans-serif; font-size: 12px; fill: #000000; fill-opacity: 1;"><tspan class="nl">9</tspan></text><text class="xtick" x="85" y="450" transform="translate(154.59,0)" text-anchor="middle" style="font-family: 'Open sans', verdana, arial, sans-serif; font-size: 20px; fill: #000000; fill-opacity: 1;"><tspan class="nl">10<tspan baseline-shift="super" style="font-size: 70%;">3</tspan></tspan></text><text class="xtick" x="80" y="432" transform="translate(309.18,0)" text-anchor="middle" style="font-family: 'Open sans', verdana, arial, sans-serif; font-size: 12px; fill: #000000; fill-opacity: 1;"><tspan class="nl">2</tspan></text><text class="xtick" x="80" y="432" transform="translate(399.61,0)" text-anchor="middle" style="font-family: 'Open sans', verdana, arial, sans-serif; font-size: 12px; fill: #000000; fill-opacity: 1;"><tspan class="nl">3</tspan></text><text class="xtick" x="80" y="432" transform="translate(463.78,0)" text-anchor="middle" style="font-family: 'Open sans', verdana, arial, sans-serif; font-size: 12px; fill: #000000; fill-opacity: 1;"><tspan class="nl">4</tspan></text><text class="xtick" x="80" y="432" transform="translate(513.54,0)" text-anchor="middle" style="font-family: 'Open sans', verdana, arial, sans-serif; font-size: 12px; fill: #000000; fill-opacity: 1;"><tspan class="nl">5</tspan></text><text class="xtick" x="80" y="432" transform="translate(554.21,0)" text-anchor="middle" style="font-family: 'Open sans', verdana, arial, sans-serif; font-size: 12px; fill: #000000; fill-opacity: 1;"><tspan class="nl">6</tspan></text><text class="xtick" x="80" y="432" transform="translate(588.59,0)" text-anchor="middle" style="font-family: 'Open sans', verdana, arial, sans-serif; font-size: 12px; fill: #000000; fill-opacity: 1;"><tspan class="nl">7</tspan></text><text class="xtick" x="80" y="432" transform="translate(618.37,0)" text-anchor="middle" style="font-family: 'Open sans', verdana, arial, sans-serif; font-size: 12px; fill: #000000; fill-opacity: 1;"><tspan class="nl">8</tspan></text><text class="xtick" x="80" y="432" transform="translate(644.64,0)" text-anchor="middle" style="font-family: 'Open sans', verdana, arial, sans-serif; font-size: 12px; fill: #000000; fill-opacity: 1;"><tspan class="nl">9</tspan></text><text class="xtick" x="85" y="450" transform="translate(668.13,0)" text-anchor="middle" style="font-family: 'Open sans', verdana, arial, sans-serif; font-size: 20px; fill: #000000; fill-opacity: 1;"><tspan class="nl">10<tspan baseline-shift="super" style="font-size: 70%;">4</tspan></tspan></text><text class="xtick" x="80" y="432" transform="translate(822.73,0)" text-anchor="middle" style="font-family: 'Open sans', verdana, arial, sans-serif; font-size: 12px; fill: #000000; fill-opacity: 1;"><tspan class="nl">2</tspan></text><text class="xtick" x="80" y="432" transform="translate(913.16,0)" text-anchor="middle" style="font-family: 'Open sans', verdana, arial, sans-serif; font-size: 12px; fill: #000000; fill-opacity: 1;"><tspan class="nl">3</tspan></text><text class="xtick" x="80" y="432" transform="translate(977.32,0)" text-anchor="middle" style="font-family: 'Open sans', verdana, arial, sans-serif; font-size: 12px; fill: #000000; fill-opacity: 1;"><tspan class="nl">4</tspan></text><text class="xtick" x="80" y="432" transform="translate(1027.09,0)" text-anchor="middle" style="font-family: 'Open sans', verdana, arial, sans-serif; font-size: 12px; fill: #000000; fill-opacity: 1;"><tspan class="nl">5</tspan></text><path class="ytick ticks crisp" d="M77,80h-5" transform="translate(0,324.03)" style="stroke: #000000; stroke-opacity: 1; stroke-width: 1px;"></path><path class="ytick ticks crisp" d="M77,80h-5" transform="translate(0,284.6)" style="stroke: #000000; stroke-opacity: 1; stroke-width: 1px;"></path><path class="ytick ticks crisp" d="M77,80h-5" transform="translate(0,245.17)" style="stroke: #000000; stroke-opacity: 1; stroke-width: 1px;"></path><path class="ytick ticks crisp" d="M77,80h-5" transform="translate(0,205.75)" style="stroke: #000000; stroke-opacity: 1; stroke-width: 1px;"></path><path class="ytick ticks crisp" d="M77,80h-5" transform="translate(0,166.32)" style="stroke: #000000; stroke-opacity: 1; stroke-width: 1px;"></path><path class="ytick ticks crisp" d="M77,80h-5" transform="translate(0,126.89)" style="stroke: #000000; stroke-opacity: 1; stroke-width: 1px;"></path><path class="ytick ticks crisp" d="M77,80h-5" transform="translate(0,87.46)" style="stroke: #000000; stroke-opacity: 1; stroke-width: 1px;"></path><path class="ytick ticks crisp" d="M77,80h-5" transform="translate(0,48.03)" style="stroke: #000000; stroke-opacity: 1; stroke-width: 1px;"></path><path class="ytick ticks crisp" d="M77,80h-5" transform="translate(0,8.6)" style="stroke: #000000; stroke-opacity: 1; stroke-width: 1px;"></path><text class="ytick" x="71" y="88" transform="translate(0,324.03)" text-anchor="end" style="font-family: 'Open sans', verdana, arial, sans-serif; font-size: 16px; fill: #000000; fill-opacity: 1;"><tspan class="nl">0.1</tspan></text><text class="ytick" x="71" y="88" transform="translate(0,284.6)" text-anchor="end" style="font-family: 'Open sans', verdana, arial, sans-serif; font-size: 16px; fill: #000000; fill-opacity: 1;"><tspan class="nl">0.2</tspan></text><text class="ytick" x="71" y="88" transform="translate(0,245.17)" text-anchor="end" style="font-family: 'Open sans', verdana, arial, sans-serif; font-size: 16px; fill: #000000; fill-opacity: 1;"><tspan class="nl">0.3</tspan></text><text class="ytick" x="71" y="88" transform="translate(0,205.75)" text-anchor="end" style="font-family: 'Open sans', verdana, arial, sans-serif; font-size: 16px; fill: #000000; fill-opacity: 1;"><tspan class="nl">0.4</tspan></text><text class="ytick" x="71" y="88" transform="translate(0,166.32)" text-anchor="end" style="font-family: 'Open sans', verdana, arial, sans-serif; font-size: 16px; fill: #000000; fill-opacity: 1;"><tspan class="nl">0.5</tspan></text><text class="ytick" x="71" y="88" transform="translate(0,126.89)" text-anchor="end" style="font-family: 'Open sans', verdana, arial, sans-serif; font-size: 16px; fill: #000000; fill-opacity: 1;"><tspan class="nl">0.6</tspan></text><text class="ytick" x="71" y="88" transform="translate(0,87.46)" text-anchor="end" style="font-family: 'Open sans', verdana, arial, sans-serif; font-size: 16px; fill: #000000; fill-opacity: 1;"><tspan class="nl">0.7</tspan></text><text class="ytick" x="71" y="88" transform="translate(0,48.03)" text-anchor="end" style="font-family: 'Open sans', verdana, arial, sans-serif; font-size: 16px; fill: #000000; fill-opacity: 1;"><tspan class="nl">0.8</tspan></text><text class="ytick" x="71" y="88" transform="translate(0,8.6)" text-anchor="end" style="font-family: 'Open sans', verdana, arial, sans-serif; font-size: 16px; fill: #000000; fill-opacity: 1;"><tspan class="nl">0.9</tspan></text></g><g></g></g><g><rect class="drag nsewdrag cursor-crosshair" x="80" y="80" width="1064" height="331" data-subplot="xy" style="fill: #000000; opacity: 0; stroke-width: 0px;"></rect><rect class="drag nwdrag cursor-nw-resize" x="60" y="60" width="20" height="20" data-subplot="xy" style="fill: #000000; opacity: 0; stroke-width: 0px;"></rect><rect class="drag nedrag cursor-ne-resize" x="1144" y="60" width="20" height="20" data-subplot="xy" style="fill: #000000; opacity: 0; stroke-width: 0px;"></rect><rect class="drag swdrag cursor-sw-resize" x="60" y="411" width="20" height="20" data-subplot="xy" style="fill: #000000; opacity: 0; stroke-width: 0px;"></rect><rect class="drag sedrag cursor-se-resize" x="1144" y="411" width="20" height="20" data-subplot="xy" style="fill: #000000; opacity: 0; stroke-width: 0px;"></rect><rect class="drag ewdrag cursor-ew-resize" x="186.4" y="413.5" width="851.2" height="20" data-subplot="xy" style="fill: #000000; opacity: 0; stroke-width: 0px;"></rect><rect class="drag wdrag cursor-w-resize" x="80" y="413.5" width="106.4" height="20" data-subplot="xy" style="fill: #000000; opacity: 0; stroke-width: 0px;"></rect><rect class="drag edrag cursor-e-resize" x="1037.6000000000001" y="413.5" width="106.4" height="20" data-subplot="xy" style="fill: #000000; opacity: 0; stroke-width: 0px;"></rect><rect class="drag nsdrag cursor-ns-resize" x="57.5" y="113.1" width="20" height="264.8" data-subplot="xy" style="fill: #000000; opacity: 0; stroke-width: 0px;"></rect><rect class="drag sdrag cursor-s-resize" x="57.5" y="377.90000000000003" width="20" height="33.1" data-subplot="xy" style="fill: #000000; opacity: 0; stroke-width: 0px;"></rect><rect class="drag ndrag cursor-n-resize" x="57.5" y="80" width="20" height="33.1" data-subplot="xy" style="fill: #000000; opacity: 0; stroke-width: 0px;"></rect></g><g class="infolayer"><text class="gtitle" x="612" y="40" text-anchor="middle" style="font-family: 'Open sans', verdana, arial, sans-serif; font-size: 28px; fill: #000000; opacity: 1;">cifar-10</text><text class="xtitle" x="612" y="478.6" text-anchor="middle" style="font-family: 'Open sans', verdana, arial, sans-serif; font-size: 19.2px; fill: #000000; opacity: 1;">Epoches</text><text class="ytitle" x="31.6" y="245.5" text-anchor="middle" transform="rotate(-90,31.6,245.5) translate(0, 0)" style="font-family: 'Open sans', verdana, arial, sans-serif; font-size: 19.2px; fill: #000000; opacity: 1;">Test Accuracy</text><g class="annotation" data-index="0" data-cmmt="" style="opacity: 1;"><svg data-cmmt="" x="1048" y="78" width="78" height="26"><rect class="bg" style="stroke-width: 1px; stroke: #000000; stroke-opacity: 0; fill: #000000; fill-opacity: 0;" x="0.5" y="0.5" width="77" height="25"></rect><text class="annotation" data-cmmt="" xml:space="preserve" text-anchor="middle" style="pointer-events: none; font-family: 'Open sans', verdana, arial, sans-serif; font-size: 16px; fill: #000000; opacity: 1;" x="38" y="18">   80.047%</text></svg><g data-cmmt="" style="opacity: 1;"><path data-cmmt="" d="M1090.7548387096774,103.5L1097.4,122" style="stroke-width: 2px; stroke: #000000; stroke-opacity: 1;"></path><path data-cmmt="" d="M-2,-3V3L1,0Z" transform="translate(1097.4000244140625,122)rotate(70.23797318620389)translate(0,0)scale(2)" style="fill: #000000; opacity: 1; stroke-width: 0px;"></path><path class="annotation anndrag" data-cmmt="" data-index="0" d="M3,3H-3V-3H3ZM0,0L-5.645161290322676,-17.5" transform="translate(1097.4,122)" style="stroke-width: 8px; stroke: #000000; stroke-opacity: 0; fill: #000000; fill-opacity: 0;"></path></g></g></g><g class="hoverlayer"></g><text class="js-plot-link-container" text-anchor="end" x="1217" y="482" style="font-family: 'Open Sans', Arial, sans-serif; font-size: 12px; fill: #444444;"><tspan class="js-link-to-tool"></tspan><tspan class="js-link-spacer"></tspan><tspan class="js-sourcelinks"></tspan></text></svg>