<svg xmlns="http://www.w3.org/2000/svg" xmlns:xlink="http://www.w3.org/1999/xlink" xml:space="preserve" width="1224" height="491"><rect x="0" y="0" width="1224" height="491" style="fill: #ffffff; fill-opacity: 1;"></rect><g class="subplot xy"><rect x="78" y="78" width="1068" height="335" style="stroke-width: 0px; fill: #ffffff; fill-opacity: 1;"></rect><g><path class="xgrid crisp" d="M80,80v331" transform="translate(40.66,0)" style="stroke: #dddddd; stroke-opacity: 1; stroke-width: 1px;"></path><path class="xgrid crisp" d="M80,80v331" transform="translate(75.04,0)" style="stroke: #dddddd; stroke-opacity: 1; stroke-width: 1px;"></path><path class="xgrid crisp" d="M80,80v331" transform="translate(104.82,0)" style="stroke: #dddddd; stroke-opacity: 1; stroke-width: 1px;"></path><path class="xgrid crisp" d="M80,80v331" transform="translate(131.09,0)" style="stroke: #dddddd; stroke-opacity: 1; stroke-width: 1px;"></path><path class="xgrid crisp" d="M80,80v331" transform="translate(154.59,0)" style="stroke: #dddddd; stroke-opacity: 1; stroke-width: 1px;"></path><path class="xgrid crisp" d="M80,80v331" transform="translate(309.18,0)" style="stroke: #dddddd; stroke-opacity: 1; stroke-width: 1px;"></path><path class="xgrid crisp" d="M80,80v331" transform="translate(399.61,0)" style="stroke: #dddddd; stroke-opacity: 1; stroke-width: 1px;"></path><path class="xgrid crisp" d="M80,80v331" transform="translate(463.78,0)" style="stroke: #dddddd; stroke-opacity: 1; stroke-width: 1px;"></path><path class="xgrid crisp" d="M80,80v331" transform="translate(513.54,0)" style="stroke: #dddddd; stroke-opacity: 1; stroke-width: 1px;"></path><path class="xgrid crisp" d="M80,80v331" transform="translate(554.21,0)" style="stroke: #dddddd; stroke-opacity: 1; stroke-width: 1px;"></path><path class="xgrid crisp" d="M80,80v331" transform="translate(588.59,0)" style="stroke: #dddddd; stroke-opacity: 1; stroke-width: 1px;"></path><path class="xgrid crisp" d="M80,80v331" transform="translate(618.37,0)" style="stroke: #dddddd; stroke-opacity: 1; stroke-width: 1px;"></path><path class="xgrid crisp" d="M80,80v331" transform="translate(644.64,0)" style="stroke: #dddddd; stroke-opacity: 1; stroke-width: 1px;"></path><path class="xgrid crisp" d="M80,80v331" transform="translate(668.13,0)" style="stroke: #dddddd; stroke-opacity: 1; stroke-width: 1px;"></path><path class="xgrid crisp" d="M80,80v331" transform="translate(822.73,0)" style="stroke: #dddddd; stroke-opacity: 1; stroke-width: 1px;"></path><path class="xgrid crisp" d="M80,80v331" transform="translate(913.16,0)" style="stroke: #dddddd; stroke-opacity: 1; stroke-width: 1px;"></path><path class="xgrid crisp" d="M80,80v331" transform="translate(977.32,0)" style="stroke: #dddddd; stroke-opacity: 1; stroke-width: 1px;"></path><path class="xgrid crisp" d="M80,80v331" transform="translate(1027.09,0)" style="stroke: #dddddd; stroke-opacity: 1; stroke-width: 1px;"></path><path class="ygrid crisp" d="M80,80h1064" transform="translate(0,266.71)" style="stroke: #dddddd; stroke-opacity: 1; stroke-width: 1px;"></path><path class="ygrid crisp" d="M80,80h1064" transform="translate(0,197.21)" style="stroke: #dddddd; stroke-opacity: 1; stroke-width: 1px;"></path><path class="ygrid crisp" d="M80,80h1064" transform="translate(0,127.7)" style="stroke: #dddddd; stroke-opacity: 1; stroke-width: 1px;"></path><path class="ygrid crisp" d="M80,80h1064" transform="translate(0,58.2)" style="stroke: #dddddd; stroke-opacity: 1; stroke-width: 1px;"></path></g><g></g><g></g><g></g><svg preserveAspectRatio="none" x="80" y="80" width="1064" height="331" style="fill: none;" viewBox="0 0 1064 331"><g class="errorbars" style="stroke: #000000;"></g><g class="errorbars" style="stroke: #000000;"></g><g class="trace scatter" style="stroke-miterlimit: 2; opacity: 1;"><path class="js-line" d="M0,16.63L154.59,66.62L245.02,95.8L309.18,102.33L358.95,136.45L399.61,139.91L433.99,133.41L463.78,158.45L490.04,170.62L513.54,163.26L534.8,195.21L554.21,186.7L572.06,178.08L588.59,190.78L603.97,223.94L618.37,206.45L631.89,229.67L644.64,216.16L656.69,184.08L668.13,228.3L679.02,228.4L689.39,243.02L699.31,224.31L708.8,238.62L717.9,230.29L726.65,241.03L735.07,242.92L743.18,221.55L751,223.68L758.56,211.94L765.88,247.46L772.96,234.78L779.82,254.17L786.48,245.31L792.94,235.47L799.23,243.78L805.34,232.26L811.29,233.15L817.08,251.34L822.73,279.62L828.23,234.72L833.61,276.46L838.86,264.4L843.98,233.17L849,244.19L853.9,270.53L858.69,269.68L863.39,261.5L867.99,286.74L872.49,246.73L876.91,256.07L881.24,266.45L885.49,251.19L889.66,242.2L893.75,239.36L897.77,280.63L901.72,263.79L905.6,261.84L909.41,273.23L913.16,261.37L916.84,265.01L920.47,259.48L924.04,267.43L927.55,269.54L931.01,304.65L934.41,274.66L937.77,290.23L941.07,288.66L944.33,260.77L947.54,278.1L950.7,281.28L953.82,292.34L956.9,273.89L959.93,281.39L962.92,252.24L965.88,277.62L968.79,275.71L971.67,270.42L974.51,261.6L977.32,269.46L980.09,274.97L982.83,276.9L985.53,274.66L988.2,284.89L990.84,277.83L993.45,291.65L996.03,276.7L998.57,285.85L1001.1,273.54L1003.59,298.71L1006.05,289.97L1008.49,294.67L1010.9,275.89L1013.29,266.97L1015.65,281.57L1017.98,285.67L1020.29,313.21L1022.58,291.22L1024.84,299.4L1027.09,282.52L1029.3,269.9L1031.5,295.72L1033.68,277.96L1035.83,266.64L1037.97,241.8L1040.08,299.27L1042.18,283.1L1044.25,293.18L1046.31,287.37L1048.34,292.15L1050.36,295.47L1052.36,282.46L1054.34,276.75L1056.31,288.99L1058.26,314.45L1060.19,298.99L1062.1,289.92L1064,287.2" style="stroke-width: 2px; stroke: #1f77b4; stroke-opacity: 1; fill: none;"></path></g><g class="trace scatter" style="stroke-miterlimit: 2; opacity: 1;"><path class="js-line" d="M0,16.55L154.59,67.59L245.02,91.63L309.18,107.76L358.95,120.98L399.61,147.78L433.99,148.24L463.78,154.03L490.04,169.49L513.54,168.85L534.8,182.1L554.21,177.2L572.06,195.87L588.59,196.33L603.97,192.02L618.37,199.01L631.89,203.93L644.64,200.35L656.69,201.76L668.13,210.25L679.02,216.8L689.39,214.87L699.31,218.38L708.8,217.49L717.9,221.81L726.65,215.51L735.07,225.42L743.18,228.27L751,226.97L758.56,224.64L765.88,231.44L772.96,230.9L779.82,224.51L786.48,224.4L792.94,233.71L799.23,231.95L805.34,231.35L811.29,234.71L817.08,229.92L822.73,230.29L828.23,232.25L833.61,241.95L838.86,234.53L843.98,236.88L849,241.63L853.9,237.39L858.69,244.3L863.39,236.78L867.99,240.67L872.49,240.4L876.91,239.35L881.24,236.94L885.49,242.06L889.66,241.14L893.75,242.19L897.77,239.47L901.72,242.21L905.6,238.81L909.41,237.85L913.16,243.71L916.84,241.83L920.47,243.46L924.04,244.34L927.55,246.09L931.01,241.42L934.41,242.98L937.77,247.72L941.07,245.49L944.33,245.09L947.54,244.48L950.7,244.07L953.82,247.52L956.9,247.37L959.93,240.33L962.92,245.71L965.88,247.1L968.79,244.9L971.67,246.21L974.51,246.74L977.32,244.26L980.09,242.7L982.83,250.69L985.53,244.62L988.2,240.44L990.84,242.92L993.45,248.14L996.03,247.23L998.57,247.51L1001.1,238.64L1003.59,246.03L1006.05,248.15L1008.49,250.97L1010.9,245.64L1013.29,249.85L1015.65,249.08L1017.98,247.42L1020.29,252.69L1022.58,248.46L1024.84,247.6L1027.09,247.86L1029.3,249.1L1031.5,245.39L1033.68,245.83L1035.83,246.38L1037.97,246.93L1040.08,246.7L1042.18,248.56L1044.25,248.72L1046.31,237.29L1048.34,246.2L1050.36,250.09L1052.36,245.78L1054.34,244.44L1056.31,247.03L1058.26,243.36L1060.19,245.21L1062.1,251.36L1064,237.79" style="stroke-width: 2px; stroke: #ff7f0e; stroke-opacity: 1; fill: none;"></path></g></svg><g></g><path class="crisp" d="M77,413.5h1070M77,77.5h1070" style="fill: none; stroke-width: 1px; stroke: #000000; stroke-opacity: 1;"></path><path class="crisp" d="M77.5,78v335M1146.5,78v335" stroke-width="1px" style="fill: none; stroke: #000000; stroke-opacity: 1;"></path><g></g><g><path class="xtick ticks crisp" d="M80,414v5" transform="translate(0,0)" style="stroke: #000000; stroke-opacity: 1; stroke-width: 1px;"></path><path class="xtick ticks crisp" d="M80,414v5" transform="translate(40.66,0)" style="stroke: #000000; stroke-opacity: 1; stroke-width: 1px;"></path><path class="xtick ticks crisp" d="M80,414v5" transform="translate(75.04,0)" style="stroke: #000000; stroke-opacity: 1; stroke-width: 1px;"></path><path class="xtick ticks crisp" d="M80,414v5" transform="translate(104.82,0)" style="stroke: #000000; stroke-opacity: 1; stroke-width: 1px;"></path><path class="xtick ticks crisp" d="M80,414v5" transform="translate(131.09,0)" style="stroke: #000000; stroke-opacity: 1; stroke-width: 1px;"></path><path class="xtick ticks crisp" d="M80,414v5" transform="translate(154.59,0)" style="stroke: #000000; stroke-opacity: 1; stroke-width: 1px;"></path><path class="xtick ticks crisp" d="M80,414v5" transform="translate(309.18,0)" style="stroke: #000000; stroke-opacity: 1; stroke-width: 1px;"></path><path class="xtick ticks crisp" d="M80,414v5" transform="translate(399.61,0)" style="stroke: #000000; stroke-opacity: 1; stroke-width: 1px;"></path><path class="xtick ticks crisp" d="M80,414v5" transform="translate(463.78,0)" style="stroke: #000000; stroke-opacity: 1; stroke-width: 1px;"></path><path class="xtick ticks crisp" d="M80,414v5" transform="translate(513.54,0)" style="stroke: #000000; stroke-opacity: 1; stroke-width: 1px;"></path><path class="xtick ticks crisp" d="M80,414v5" transform="translate(554.21,0)" style="stroke: #000000; stroke-opacity: 1; stroke-width: 1px;"></path><path class="xtick ticks crisp" d="M80,414v5" transform="translate(588.59,0)" style="stroke: #000000; stroke-opacity: 1; stroke-width: 1px;"></path><path class="xtick ticks crisp" d="M80,414v5" transform="translate(618.37,0)" style="stroke: #000000; stroke-opacity: 1; stroke-width: 1px;"></path><path class="xtick ticks crisp" d="M80,414v5" transform="translate(644.64,0)" style="stroke: #000000; stroke-opacity: 1; stroke-width: 1px;"></path><path class="xtick ticks crisp" d="M80,414v5" transform="translate(668.13,0)" style="stroke: #000000; stroke-opacity: 1; stroke-width: 1px;"></path><path class="xtick ticks crisp" d="M80,414v5" transform="translate(822.73,0)" style="stroke: #000000; stroke-opacity: 1; stroke-width: 1px;"></path><path class="xtick ticks crisp" d="M80,414v5" transform="translate(913.16,0)" style="stroke: #000000; stroke-opacity: 1; stroke-width: 1px;"></path><path class="xtick ticks crisp" d="M80,414v5" transform="translate(977.32,0)" style="stroke: #000000; stroke-opacity: 1; stroke-width: 1px;"></path><path class="xtick ticks crisp" d="M80,414v5" transform="translate(1027.09,0)" style="stroke: #000000; stroke-opacity: 1; stroke-width: 1px;"></path><text class="xtick" x="80" y="429" transform="translate(0,0)" text-anchor="middle" style="font-family: 'Open sans', verdana, arial, sans-serif; font-size: 9px; fill: #000000; fill-opacity: 1;"><tspan class="nl">5</tspan></text><text class="xtick" x="80" y="429" transform="translate(40.66,0)" text-anchor="middle" style="font-family: 'Open sans', verdana, arial, sans-serif; font-size: 9px; fill: #000000; fill-opacity: 1;"><tspan class="nl">6</tspan></text><text class="xtick" x="80" y="429" transform="translate(75.04,0)" text-anchor="middle" style="font-family: 'Open sans', verdana, arial, sans-serif; font-size: 9px; fill: #000000; fill-opacity: 1;"><tspan class="nl">7</tspan></text><text class="xtick" x="80" y="429" transform="translate(104.82,0)" text-anchor="middle" style="font-family: 'Open sans', verdana, arial, sans-serif; font-size: 9px; fill: #000000; fill-opacity: 1;"><tspan class="nl">8</tspan></text><text class="xtick" x="80" y="429" transform="translate(131.09,0)" text-anchor="middle" style="font-family: 'Open sans', verdana, arial, sans-serif; font-size: 9px; fill: #000000; fill-opacity: 1;"><tspan class="nl">9</tspan></text><text class="xtick" x="83.75" y="442.5" transform="translate(154.59,0)" text-anchor="middle" style="font-family: 'Open sans', verdana, arial, sans-serif; font-size: 15px; fill: #000000; fill-opacity: 1;"><tspan class="nl">10<tspan baseline-shift="super" style="font-size: 70%;">3</tspan></tspan></text><text class="xtick" x="80" y="429" transform="translate(309.18,0)" text-anchor="middle" style="font-family: 'Open sans', verdana, arial, sans-serif; font-size: 9px; fill: #000000; fill-opacity: 1;"><tspan class="nl">2</tspan></text><text class="xtick" x="80" y="429" transform="translate(399.61,0)" text-anchor="middle" style="font-family: 'Open sans', verdana, arial, sans-serif; font-size: 9px; fill: #000000; fill-opacity: 1;"><tspan class="nl">3</tspan></text><text class="xtick" x="80" y="429" transform="translate(463.78,0)" text-anchor="middle" style="font-family: 'Open sans', verdana, arial, sans-serif; font-size: 9px; fill: #000000; fill-opacity: 1;"><tspan class="nl">4</tspan></text><text class="xtick" x="80" y="429" transform="translate(513.54,0)" text-anchor="middle" style="font-family: 'Open sans', verdana, arial, sans-serif; font-size: 9px; fill: #000000; fill-opacity: 1;"><tspan class="nl">5</tspan></text><text class="xtick" x="80" y="429" transform="translate(554.21,0)" text-anchor="middle" style="font-family: 'Open sans', verdana, arial, sans-serif; font-size: 9px; fill: #000000; fill-opacity: 1;"><tspan class="nl">6</tspan></text><text class="xtick" x="80" y="429" transform="translate(588.59,0)" text-anchor="middle" style="font-family: 'Open sans', verdana, arial, sans-serif; font-size: 9px; fill: #000000; fill-opacity: 1;"><tspan class="nl">7</tspan></text><text class="xtick" x="80" y="429" transform="translate(618.37,0)" text-anchor="middle" style="font-family: 'Open sans', verdana, arial, sans-serif; font-size: 9px; fill: #000000; fill-opacity: 1;"><tspan class="nl">8</tspan></text><text class="xtick" x="80" y="429" transform="translate(644.64,0)" text-anchor="middle" style="font-family: 'Open sans', verdana, arial, sans-serif; font-size: 9px; fill: #000000; fill-opacity: 1;"><tspan class="nl">9</tspan></text><text class="xtick" x="83.75" y="442.5" transform="translate(668.13,0)" text-anchor="middle" style="font-family: 'Open sans', verdana, arial, sans-serif; font-size: 15px; fill: #000000; fill-opacity: 1;"><tspan class="nl">10<tspan baseline-shift="super" style="font-size: 70%;">4</tspan></tspan></text><text class="xtick" x="80" y="429" transform="translate(822.73,0)" text-anchor="middle" style="font-family: 'Open sans', verdana, arial, sans-serif; font-size: 9px; fill: #000000; fill-opacity: 1;"><tspan class="nl">2</tspan></text><text class="xtick" x="80" y="429" transform="translate(913.16,0)" text-anchor="middle" style="font-family: 'Open sans', verdana, arial, sans-serif; font-size: 9px; fill: #000000; fill-opacity: 1;"><tspan class="nl">3</tspan></text><text class="xtick" x="80" y="429" transform="translate(977.32,0)" text-anchor="middle" style="font-family: 'Open sans', verdana, arial, sans-serif; font-size: 9px; fill: #000000; fill-opacity: 1;"><tspan class="nl">4</tspan></text><text class="xtick" x="80" y="429" transform="translate(1027.09,0)" text-anchor="middle" style="font-family: 'Open sans', verdana, arial, sans-serif; font-size: 9px; fill: #000000; fill-opacity: 1;"><tspan class="nl">5</tspan></text><path class="ytick ticks crisp" d="M77,80h-5" transform="translate(0,266.71)" style="stroke: #000000; stroke-opacity: 1; stroke-width: 1px;"></path><path class="ytick ticks crisp" d="M77,80h-5" transform="translate(0,197.21)" style="stroke: #000000; stroke-opacity: 1; stroke-width: 1px;"></path><path class="ytick ticks crisp" d="M77,80h-5" transform="translate(0,127.7)" style="stroke: #000000; stroke-opacity: 1; stroke-width: 1px;"></path><path class="ytick ticks crisp" d="M77,80h-5" transform="translate(0,58.2)" style="stroke: #000000; stroke-opacity: 1; stroke-width: 1px;"></path><text class="ytick" x="71" y="86" transform="translate(0,266.71)" text-anchor="end" style="font-family: 'Open sans', verdana, arial, sans-serif; font-size: 12px; fill: #000000; fill-opacity: 1;"><tspan class="nl">0.5</tspan></text><text class="ytick" x="71" y="86" transform="translate(0,197.21)" text-anchor="end" style="font-family: 'Open sans', verdana, arial, sans-serif; font-size: 12px; fill: #000000; fill-opacity: 1;"><tspan class="nl">1</tspan></text><text class="ytick" x="71" y="86" transform="translate(0,127.7)" text-anchor="end" style="font-family: 'Open sans', verdana, arial, sans-serif; font-size: 12px; fill: #000000; fill-opacity: 1;"><tspan class="nl">1.5</tspan></text><text class="ytick" x="71" y="86" transform="translate(0,58.2)" text-anchor="end" style="font-family: 'Open sans', verdana, arial, sans-serif; font-size: 12px; fill: #000000; fill-opacity: 1;"><tspan class="nl">2</tspan></text></g><g></g></g><g><rect class="drag nsewdrag cursor-crosshair" x="80" y="80" width="1064" height="331" data-subplot="xy" style="fill: #000000; opacity: 0; stroke-width: 0px;"></rect><rect class="drag nwdrag cursor-nw-resize" x="60" y="60" width="20" height="20" data-subplot="xy" style="fill: #000000; opacity: 0; stroke-width: 0px;"></rect><rect class="drag nedrag cursor-ne-resize" x="1144" y="60" width="20" height="20" data-subplot="xy" style="fill: #000000; opacity: 0; stroke-width: 0px;"></rect><rect class="drag swdrag cursor-sw-resize" x="60" y="411" width="20" height="20" data-subplot="xy" style="fill: #000000; opacity: 0; stroke-width: 0px;"></rect><rect class="drag sedrag cursor-se-resize" x="1144" y="411" width="20" height="20" data-subplot="xy" style="fill: #000000; opacity: 0; stroke-width: 0px;"></rect><rect class="drag ewdrag cursor-ew-resize" x="186.4" y="413.5" width="851.2" height="20" data-subplot="xy" style="fill: #000000; opacity: 0; stroke-width: 0px;"></rect><rect class="drag wdrag cursor-w-resize" x="80" y="413.5" width="106.4" height="20" data-subplot="xy" style="fill: #000000; opacity: 0; stroke-width: 0px;"></rect><rect class="drag edrag cursor-e-resize" x="1037.6000000000001" y="413.5" width="106.4" height="20" data-subplot="xy" style="fill: #000000; opacity: 0; stroke-width: 0px;"></rect><rect class="drag nsdrag cursor-ns-resize" x="57.5" y="113.1" width="20" height="264.8" data-subplot="xy" style="fill: #000000; opacity: 0; stroke-width: 0px;"></rect><rect class="drag sdrag cursor-s-resize" x="57.5" y="377.90000000000003" width="20" height="33.1" data-subplot="xy" style="fill: #000000; opacity: 0; stroke-width: 0px;"></rect><rect class="drag ndrag cursor-n-resize" x="57.5" y="80" width="20" height="33.1" data-subplot="xy" style="fill: #000000; opacity: 0; stroke-width: 0px;"></rect></g><g class="infolayer"><text class="gtitle" x="612" y="40" text-anchor="middle" style="font-family: 'Open sans', verdana, arial, sans-serif; font-size: 24px; fill: #000000; opacity: 1;">loss-model1</text><text class="xtitle" x="612" y="493" text-anchor="middle" style="font-family: 'Open sans', verdana, arial, sans-serif; font-size: 24px; fill: #000000; opacity: 1;" transform="translate(0,-9) ">epoches</text><text class="ytitle" x="22" y="245.5" text-anchor="middle" transform="translate(4,0) rotate(-90,22,245.5) translate(0, 0)" style="font-family: 'Open sans', verdana, arial, sans-serif; font-size: 24px; fill: #000000; opacity: 1;">error</text><svg class="legend" x="1027" y="87" width="96" height="78"><rect class="bg" style="stroke: #000000; stroke-opacity: 1; fill: #ffffff; opacity: 1; stroke-width: 1px;" x="0.5" y="0.5" width="95" height="77"></rect><g class="traces" transform="translate(1,21)"><g class="legendfill"></g><g class="legendlines"><path d="M5,0h30" style="stroke-width: 2px; stroke: #1f77b4; stroke-opacity: 1; fill: none;"></path></g><g class="legendsymbols" style="opacity: 1;"><g class="legendpoints"></g></g><text class="legendtext text-0" x="40" y="9" xml:space="preserve" style="text-anchor: start; font-family: 'Open sans', verdana, arial, sans-serif; font-size: 22px; fill: #000000; opacity: 1; pointer-events: all;">train</text></g><g class="traces" transform="translate(1,54)"><g class="legendfill"></g><g class="legendlines"><path d="M5,0h30" style="stroke-width: 2px; stroke: #ff7f0e; stroke-opacity: 1; fill: none;"></path></g><g class="legendsymbols" style="opacity: 1;"><g class="legendpoints"></g></g><text class="legendtext text-1" x="40" y="9" xml:space="preserve" style="text-anchor: start; font-family: 'Open sans', verdana, arial, sans-serif; font-size: 22px; fill: #000000; opacity: 1; pointer-events: all;">test</text></g></svg></g><g class="hoverlayer"></g><text class="js-plot-link-container" text-anchor="end" x="1217" y="482" style="font-family: 'Open Sans', Arial, sans-serif; font-size: 12px; fill: #444444;"><tspan class="js-link-to-tool"></tspan><tspan class="js-link-spacer"></tspan><tspan class="js-sourcelinks"></tspan></text></svg>